<svg width="328" height="126" viewBox="0 0 328 126" fill="none" xmlns="http://www.w3.org/2000/svg">
<path d="M122.113 18.0728H131.332L148.66 64.2941L165.947 18.0728H175.167L152.282 78H144.956L122.113 18.0728ZM117.915 18.0728H126.682L128.204 58.0791V78H117.915V18.0728ZM170.598 18.0728H179.406V78H169.075V58.0791L170.598 18.0728ZM202.702 18.0728V78H192.371V18.0728H202.702ZM213.938 37.9936C213.938 36.457 214.46 35.1674 215.502 34.1247C216.545 33.0546 217.958 32.5195 219.742 32.5195C221.553 32.5195 222.966 33.0546 223.981 34.1247C225.024 35.1674 225.545 36.457 225.545 37.9936C225.545 39.5302 225.024 40.8199 223.981 41.8626C222.966 42.9052 221.553 43.4266 219.742 43.4266C217.958 43.4266 216.545 42.9052 215.502 41.8626C214.46 40.8199 213.938 39.5302 213.938 37.9936ZM224.557 68.4512L224.516 75.5305C224.516 78.3293 223.816 81.2104 222.417 84.1738C221.018 87.1373 219.165 89.5793 216.861 91.5001L211.551 88.4132C212.319 87.1784 213.019 85.9299 213.65 84.6677C214.281 83.4055 214.789 82.061 215.173 80.6342C215.557 79.2073 215.749 77.6296 215.749 75.9009V68.4512H224.557ZM235.794 18.0728H256.99C261.545 18.0728 265.428 18.7587 268.638 20.1307C271.849 21.5027 274.305 23.5332 276.006 26.2222C277.734 28.8838 278.599 32.1765 278.599 36.1003C278.599 39.0912 278.05 41.7254 276.952 44.0028C275.855 46.2803 274.305 48.201 272.301 49.765C270.298 51.3016 267.911 52.4952 265.14 53.3459L262.012 54.8687H242.955L242.873 46.6781H257.155C259.625 46.6781 261.682 46.2391 263.329 45.3611C264.975 44.483 266.21 43.2894 267.033 41.7802C267.884 40.2436 268.309 38.515 268.309 36.5942C268.309 34.5088 267.897 32.6979 267.074 31.1613C266.279 29.5972 265.044 28.4036 263.37 27.5804C261.696 26.7298 259.57 26.3045 256.99 26.3045H246.124V78H235.794V18.0728ZM269.997 78L255.92 51.0821L266.745 51.041L281.027 77.4649V78H269.997ZM307.533 78.8232C304.241 78.8232 301.264 78.2881 298.602 77.218C295.968 76.1204 293.718 74.5975 291.852 72.6494C290.013 70.7012 288.6 68.41 287.613 65.7758C286.625 63.1417 286.131 60.3017 286.131 57.256V55.6096C286.131 52.1248 286.638 48.9693 287.654 46.1431C288.669 43.3168 290.082 40.9022 291.893 38.8991C293.704 36.8686 295.844 35.3183 298.314 34.2482C300.783 33.178 303.459 32.643 306.34 32.643C309.523 32.643 312.308 33.178 314.695 34.2482C317.082 35.3183 319.058 36.8275 320.622 38.7756C322.213 40.6964 323.393 42.9876 324.162 45.6492C324.957 48.3108 325.355 51.2468 325.355 54.4572V58.6965H290.946V51.576H315.559V50.794C315.505 49.0105 315.148 47.3367 314.489 45.7726C313.858 44.2086 312.884 42.9464 311.567 41.986C310.25 41.0257 308.494 40.5455 306.299 40.5455C304.652 40.5455 303.184 40.9022 301.895 41.6156C300.632 42.3016 299.576 43.3031 298.725 44.6202C297.875 45.9373 297.216 47.5287 296.75 49.3946C296.311 51.233 296.091 53.3047 296.091 55.6096V57.256C296.091 59.2041 296.352 61.0151 296.873 62.6889C297.422 64.3353 298.218 65.7758 299.26 67.0106C300.303 68.2454 301.565 69.2195 303.047 69.9329C304.529 70.6189 306.216 70.9618 308.11 70.9618C310.497 70.9618 312.623 70.4817 314.489 69.5213C316.355 68.5609 317.974 67.2027 319.346 65.4466L324.573 70.5091C323.613 71.9085 322.364 73.253 320.828 74.5427C319.291 75.8049 317.412 76.8338 315.189 77.6296C312.994 78.4253 310.442 78.8232 307.533 78.8232Z" fill="#4287FF"/>
<path d="M139.932 105.379H141.133L146.343 117.794L151.563 105.379H152.754L146.799 119.479H145.888L139.932 105.379ZM139.564 105.379H140.62L140.746 113.32V119.479H139.564V105.379ZM152.086 105.379H153.142V119.479H151.951V113.32L152.086 105.379ZM159.563 118.434L162.826 109.001H164.076L159.64 121.165C159.55 121.403 159.433 121.668 159.291 121.959C159.156 122.249 158.975 122.527 158.749 122.792C158.53 123.063 158.252 123.282 157.916 123.45C157.587 123.624 157.183 123.712 156.706 123.712C156.583 123.712 156.425 123.695 156.231 123.663C156.044 123.637 155.908 123.612 155.824 123.586L155.815 122.608C155.886 122.627 155.989 122.643 156.125 122.656C156.26 122.669 156.354 122.675 156.405 122.675C156.825 122.675 157.177 122.604 157.461 122.462C157.752 122.32 157.994 122.107 158.187 121.823C158.381 121.546 158.552 121.197 158.701 120.777L159.563 118.434ZM156.512 109.001L159.853 117.998L160.163 119.208L159.32 119.683L155.253 109.001H156.512ZM172.453 105.379V119.479H171.261V105.379H172.453ZM177.111 111.17V119.479H175.949V109.001H177.062L177.111 111.17ZM176.898 113.591L176.336 113.301C176.375 112.681 176.491 112.1 176.685 111.558C176.885 111.015 177.162 110.538 177.518 110.124C177.873 109.711 178.299 109.388 178.796 109.156C179.293 108.923 179.858 108.807 180.491 108.807C181.001 108.807 181.462 108.878 181.876 109.02C182.295 109.156 182.65 109.372 182.941 109.669C183.238 109.96 183.467 110.341 183.628 110.812C183.79 111.283 183.871 111.848 183.871 112.507V119.479H182.718V112.545C182.718 111.848 182.608 111.303 182.389 110.909C182.176 110.515 181.876 110.234 181.488 110.066C181.107 109.898 180.665 109.814 180.161 109.814C179.567 109.814 179.064 109.937 178.651 110.182C178.244 110.421 177.911 110.734 177.653 111.122C177.401 111.503 177.214 111.913 177.091 112.352C176.969 112.784 176.904 113.198 176.898 113.591ZM183.861 112.681L183.086 112.7C183.118 112.19 183.235 111.703 183.435 111.238C183.641 110.773 183.922 110.36 184.277 109.998C184.632 109.63 185.055 109.34 185.546 109.127C186.043 108.914 186.602 108.807 187.221 108.807C187.764 108.807 188.248 108.881 188.674 109.03C189.1 109.172 189.458 109.401 189.749 109.718C190.046 110.027 190.272 110.425 190.427 110.909C190.582 111.393 190.659 111.974 190.659 112.652V119.479H189.497V112.642C189.497 111.9 189.387 111.325 189.168 110.918C188.955 110.505 188.658 110.218 188.277 110.057C187.896 109.895 187.451 109.814 186.94 109.814C186.437 109.821 185.995 109.915 185.614 110.095C185.233 110.27 184.913 110.502 184.655 110.793C184.403 111.077 184.209 111.383 184.074 111.713C183.945 112.042 183.874 112.365 183.861 112.681ZM194.746 111.015V123.508H193.584V109.001H194.669L194.746 111.015ZM202.029 114.143V114.347C202.029 115.128 201.938 115.845 201.758 116.497C201.577 117.149 201.315 117.714 200.973 118.191C200.638 118.663 200.221 119.028 199.724 119.286C199.227 119.544 198.662 119.673 198.029 119.673C197.403 119.673 196.844 119.576 196.354 119.383C195.863 119.189 195.44 118.915 195.085 118.559C194.736 118.198 194.456 117.778 194.243 117.3C194.036 116.816 193.891 116.287 193.807 115.712V113.03C193.904 112.397 194.062 111.822 194.281 111.306C194.501 110.789 194.782 110.344 195.124 109.969C195.472 109.595 195.886 109.308 196.363 109.107C196.841 108.907 197.387 108.807 198 108.807C198.639 108.807 199.207 108.933 199.705 109.185C200.208 109.43 200.631 109.789 200.973 110.26C201.322 110.725 201.583 111.286 201.758 111.945C201.938 112.597 202.029 113.33 202.029 114.143ZM200.867 114.347V114.143C200.867 113.53 200.802 112.962 200.673 112.439C200.55 111.916 200.36 111.461 200.102 111.073C199.85 110.68 199.527 110.373 199.133 110.153C198.746 109.934 198.284 109.824 197.748 109.824C197.193 109.824 196.719 109.918 196.325 110.105C195.937 110.286 195.615 110.528 195.356 110.831C195.098 111.128 194.895 111.454 194.746 111.809C194.598 112.165 194.488 112.513 194.417 112.855V115.945C194.54 116.435 194.736 116.891 195.008 117.31C195.279 117.723 195.64 118.056 196.092 118.308C196.551 118.553 197.109 118.676 197.768 118.676C198.297 118.676 198.755 118.566 199.143 118.346C199.53 118.127 199.85 117.82 200.102 117.426C200.36 117.033 200.55 116.574 200.673 116.051C200.802 115.528 200.867 114.96 200.867 114.347ZM205.893 104.604V119.479H204.74V104.604H205.893ZM215.432 117.601V112.197C215.432 111.7 215.329 111.27 215.122 110.909C214.916 110.547 214.612 110.27 214.212 110.076C213.812 109.882 213.318 109.785 212.73 109.785C212.188 109.785 211.704 109.882 211.277 110.076C210.858 110.263 210.525 110.518 210.28 110.841C210.041 111.157 209.922 111.509 209.922 111.897L208.76 111.887C208.76 111.493 208.856 111.112 209.05 110.744C209.244 110.376 209.518 110.047 209.873 109.756C210.228 109.466 210.651 109.237 211.142 109.069C211.639 108.894 212.185 108.807 212.779 108.807C213.527 108.807 214.186 108.933 214.754 109.185C215.329 109.437 215.777 109.814 216.1 110.318C216.423 110.822 216.585 111.454 216.585 112.216V117.281C216.585 117.643 216.61 118.017 216.662 118.405C216.72 118.792 216.801 119.111 216.904 119.363V119.479H215.674C215.597 119.247 215.535 118.957 215.49 118.608C215.451 118.253 215.432 117.917 215.432 117.601ZM215.703 113.378L215.723 114.269H213.447C212.853 114.269 212.32 114.324 211.849 114.434C211.384 114.537 210.99 114.692 210.667 114.899C210.345 115.099 210.096 115.341 209.922 115.625C209.754 115.909 209.67 116.232 209.67 116.594C209.67 116.968 209.763 117.31 209.951 117.62C210.144 117.93 210.416 118.179 210.764 118.366C211.119 118.547 211.539 118.637 212.023 118.637C212.669 118.637 213.237 118.518 213.728 118.279C214.225 118.04 214.635 117.727 214.958 117.339C215.28 116.952 215.497 116.529 215.606 116.071L216.11 116.739C216.026 117.062 215.871 117.394 215.645 117.736C215.426 118.072 215.138 118.388 214.783 118.685C214.428 118.976 214.008 119.215 213.524 119.402C213.046 119.583 212.504 119.673 211.897 119.673C211.213 119.673 210.616 119.544 210.106 119.286C209.602 119.028 209.208 118.676 208.924 118.23C208.647 117.778 208.508 117.268 208.508 116.7C208.508 116.184 208.617 115.722 208.837 115.315C209.057 114.902 209.373 114.553 209.786 114.269C210.206 113.979 210.709 113.759 211.297 113.611C211.891 113.456 212.556 113.378 213.292 113.378H215.703ZM220.846 111.238V119.479H219.693V109.001H220.797L220.846 111.238ZM220.584 113.591L220.071 113.301C220.11 112.681 220.236 112.1 220.449 111.558C220.662 111.015 220.949 110.538 221.311 110.124C221.679 109.711 222.108 109.388 222.599 109.156C223.096 108.923 223.644 108.807 224.245 108.807C224.768 108.807 225.236 108.878 225.649 109.02C226.062 109.162 226.414 109.388 226.705 109.698C226.995 110.008 227.215 110.405 227.363 110.889C227.518 111.374 227.596 111.964 227.596 112.662V119.479H226.434V112.652C226.434 111.929 226.334 111.364 226.133 110.957C225.933 110.544 225.649 110.25 225.281 110.076C224.913 109.902 224.477 109.814 223.974 109.814C223.419 109.814 222.931 109.937 222.511 110.182C222.098 110.421 221.75 110.734 221.465 111.122C221.188 111.503 220.975 111.913 220.826 112.352C220.678 112.784 220.597 113.198 220.584 113.591ZM234.559 109.001V109.95H229.31V109.001H234.559ZM231.237 106.309H232.39V116.932C232.39 117.417 232.454 117.781 232.583 118.027C232.712 118.272 232.88 118.437 233.087 118.521C233.293 118.605 233.516 118.647 233.755 118.647C233.929 118.647 234.097 118.637 234.259 118.618C234.42 118.592 234.565 118.566 234.694 118.54L234.743 119.518C234.601 119.563 234.417 119.599 234.191 119.625C233.965 119.657 233.739 119.673 233.513 119.673C233.067 119.673 232.674 119.592 232.331 119.431C231.989 119.263 231.721 118.979 231.528 118.579C231.334 118.172 231.237 117.62 231.237 116.923V106.309ZM242.074 105.379H246.655C247.63 105.379 248.475 105.537 249.192 105.853C249.909 106.17 250.461 106.638 250.848 107.258C251.242 107.871 251.439 108.626 251.439 109.524C251.439 110.189 251.297 110.793 251.013 111.335C250.735 111.877 250.351 112.332 249.86 112.7C249.37 113.062 248.801 113.311 248.156 113.446L247.739 113.601H242.849L242.829 112.584H246.926C247.662 112.584 248.275 112.442 248.766 112.158C249.257 111.874 249.625 111.5 249.87 111.035C250.122 110.563 250.248 110.06 250.248 109.524C250.248 108.885 250.109 108.333 249.831 107.868C249.56 107.397 249.156 107.035 248.621 106.783C248.085 106.531 247.429 106.406 246.655 106.406H243.265V119.479H242.074V105.379ZM250.78 119.479L247.129 113.175L248.408 113.165L252.049 119.354V119.479H250.78ZM258.489 119.673C257.805 119.673 257.175 119.547 256.601 119.295C256.032 119.044 255.535 118.689 255.109 118.23C254.69 117.772 254.363 117.229 254.131 116.603C253.905 115.971 253.792 115.28 253.792 114.531V114.114C253.792 113.307 253.912 112.578 254.15 111.926C254.389 111.274 254.719 110.715 255.138 110.25C255.558 109.785 256.036 109.43 256.572 109.185C257.114 108.933 257.682 108.807 258.276 108.807C258.941 108.807 259.532 108.927 260.048 109.166C260.565 109.398 260.997 109.73 261.346 110.163C261.701 110.589 261.969 111.096 262.15 111.684C262.331 112.265 262.421 112.907 262.421 113.611V114.318H254.489V113.33H261.268V113.194C261.256 112.607 261.136 112.058 260.91 111.548C260.691 111.031 260.361 110.612 259.922 110.289C259.483 109.966 258.935 109.805 258.276 109.805C257.785 109.805 257.333 109.908 256.92 110.115C256.513 110.321 256.162 110.618 255.865 111.006C255.574 111.387 255.348 111.842 255.187 112.371C255.032 112.894 254.954 113.475 254.954 114.114V114.531C254.954 115.112 255.038 115.654 255.206 116.158C255.38 116.655 255.626 117.094 255.942 117.475C256.265 117.856 256.646 118.153 257.085 118.366C257.524 118.579 258.008 118.685 258.537 118.685C259.157 118.685 259.706 118.572 260.184 118.346C260.662 118.114 261.091 117.749 261.472 117.252L262.198 117.814C261.972 118.149 261.688 118.459 261.346 118.743C261.01 119.028 260.607 119.254 260.135 119.421C259.664 119.589 259.115 119.673 258.489 119.673ZM268.571 118.676C269.061 118.676 269.52 118.585 269.946 118.405C270.378 118.217 270.733 117.943 271.011 117.581C271.295 117.213 271.457 116.765 271.495 116.235H272.599C272.567 116.9 272.364 117.494 271.989 118.017C271.621 118.534 271.137 118.94 270.536 119.237C269.943 119.528 269.287 119.673 268.571 119.673C267.841 119.673 267.195 119.541 266.634 119.276C266.078 119.011 265.614 118.643 265.239 118.172C264.865 117.694 264.581 117.139 264.387 116.506C264.2 115.867 264.106 115.18 264.106 114.444V114.037C264.106 113.301 264.2 112.616 264.387 111.984C264.581 111.345 264.865 110.789 265.239 110.318C265.614 109.84 266.078 109.469 266.634 109.204C267.189 108.94 267.831 108.807 268.561 108.807C269.31 108.807 269.981 108.959 270.575 109.262C271.176 109.566 271.653 109.995 272.009 110.55C272.37 111.106 272.567 111.764 272.599 112.526H271.495C271.463 111.964 271.314 111.48 271.05 111.073C270.785 110.667 270.436 110.354 270.004 110.134C269.571 109.915 269.09 109.805 268.561 109.805C267.967 109.805 267.46 109.921 267.04 110.153C266.621 110.379 266.279 110.692 266.014 111.093C265.756 111.487 265.565 111.939 265.442 112.449C265.32 112.952 265.258 113.482 265.258 114.037V114.444C265.258 115.005 265.317 115.541 265.433 116.051C265.555 116.555 265.746 117.004 266.004 117.397C266.269 117.791 266.611 118.104 267.031 118.337C267.457 118.563 267.97 118.676 268.571 118.676ZM274.294 114.405V114.085C274.294 113.323 274.404 112.62 274.623 111.974C274.843 111.328 275.156 110.77 275.563 110.299C275.976 109.827 276.47 109.463 277.044 109.204C277.619 108.94 278.258 108.807 278.962 108.807C279.672 108.807 280.315 108.94 280.889 109.204C281.464 109.463 281.958 109.827 282.371 110.299C282.784 110.77 283.1 111.328 283.32 111.974C283.539 112.62 283.649 113.323 283.649 114.085V114.405C283.649 115.167 283.539 115.87 283.32 116.516C283.1 117.155 282.784 117.71 282.371 118.182C281.964 118.653 281.473 119.021 280.899 119.286C280.324 119.544 279.685 119.673 278.981 119.673C278.271 119.673 277.629 119.544 277.054 119.286C276.48 119.021 275.986 118.653 275.572 118.182C275.159 117.71 274.843 117.155 274.623 116.516C274.404 115.87 274.294 115.167 274.294 114.405ZM275.446 114.085V114.405C275.446 114.979 275.524 115.525 275.679 116.042C275.834 116.552 276.06 117.007 276.357 117.407C276.654 117.801 277.022 118.111 277.461 118.337C277.9 118.563 278.407 118.676 278.981 118.676C279.549 118.676 280.05 118.563 280.482 118.337C280.921 118.111 281.289 117.801 281.586 117.407C281.883 117.007 282.106 116.552 282.255 116.042C282.41 115.525 282.487 114.979 282.487 114.405V114.085C282.487 113.517 282.41 112.978 282.255 112.468C282.106 111.958 281.88 111.503 281.577 111.102C281.28 110.702 280.912 110.386 280.473 110.153C280.034 109.921 279.53 109.805 278.962 109.805C278.394 109.805 277.89 109.921 277.451 110.153C277.019 110.386 276.651 110.702 276.347 111.102C276.05 111.503 275.824 111.958 275.669 112.468C275.521 112.978 275.446 113.517 275.446 114.085ZM287.203 110.734V119.479H286.051V109.001H287.174L287.203 110.734ZM290.913 108.923L290.883 109.989C290.754 109.969 290.628 109.953 290.506 109.94C290.383 109.927 290.251 109.921 290.109 109.921C289.605 109.921 289.163 110.015 288.782 110.202C288.407 110.383 288.091 110.638 287.833 110.967C287.575 111.29 287.378 111.671 287.242 112.11C287.107 112.542 287.029 113.007 287.01 113.504L286.584 113.669C286.584 112.984 286.655 112.349 286.797 111.761C286.939 111.173 287.155 110.66 287.446 110.221C287.742 109.776 288.114 109.43 288.559 109.185C289.011 108.933 289.541 108.807 290.147 108.807C290.296 108.807 290.441 108.82 290.583 108.846C290.732 108.865 290.842 108.891 290.913 108.923ZM299.348 117.446V104.604H300.51V119.479H299.425L299.348 117.446ZM292.075 114.347V114.143C292.075 113.33 292.168 112.597 292.356 111.945C292.543 111.286 292.811 110.725 293.159 110.26C293.514 109.789 293.941 109.43 294.438 109.185C294.935 108.933 295.496 108.807 296.123 108.807C296.736 108.807 297.278 108.907 297.75 109.107C298.221 109.308 298.625 109.595 298.96 109.969C299.302 110.344 299.577 110.789 299.783 111.306C299.997 111.822 300.151 112.397 300.248 113.03V115.615C300.171 116.209 300.029 116.755 299.822 117.252C299.616 117.743 299.341 118.172 298.999 118.54C298.657 118.902 298.244 119.183 297.759 119.383C297.282 119.576 296.73 119.673 296.103 119.673C295.484 119.673 294.925 119.544 294.428 119.286C293.931 119.028 293.508 118.663 293.159 118.191C292.811 117.714 292.543 117.149 292.356 116.497C292.168 115.845 292.075 115.128 292.075 114.347ZM293.237 114.143V114.347C293.237 114.96 293.298 115.528 293.421 116.051C293.543 116.574 293.731 117.029 293.982 117.417C294.234 117.804 294.554 118.108 294.941 118.327C295.329 118.547 295.787 118.656 296.316 118.656C296.981 118.656 297.54 118.53 297.992 118.279C298.444 118.02 298.805 117.681 299.077 117.262C299.348 116.836 299.545 116.371 299.667 115.867V112.855C299.59 112.513 299.477 112.165 299.328 111.809C299.18 111.454 298.976 111.128 298.718 110.831C298.466 110.528 298.144 110.286 297.75 110.105C297.362 109.918 296.891 109.824 296.336 109.824C295.8 109.824 295.338 109.934 294.951 110.153C294.564 110.373 294.241 110.68 293.982 111.073C293.731 111.461 293.543 111.916 293.421 112.439C293.298 112.962 293.237 113.53 293.237 114.143Z" fill="#4287FF"/>
<path d="M3.22057 62.3154V94.8992C3.22057 95.1084 3.3902 95.278 3.59945 95.278H30.8789" stroke="#4287FF" stroke-width="5.68321" stroke-linecap="round"/>
<path d="M28.4156 30.6788H65.7353C65.9446 30.6788 66.1142 30.5092 66.1142 30.2999V17.6074C66.1142 17.3981 66.2838 17.2285 66.4931 17.2285H88.2787C88.488 17.2285 88.6576 17.3981 88.6576 17.6074V94.8991C88.6576 95.1083 88.488 95.2779 88.2787 95.2779H79.5645" stroke="#4287FF" stroke-width="5.68321" stroke-linecap="round"/>
<path d="M3.41016 17.0391H25.7637C25.9729 17.0391 26.1426 17.2087 26.1426 17.418V43.5605C26.1426 43.7698 25.9729 43.9395 25.7637 43.9395H3.41016C3.20092 43.9395 3.03127 43.7698 3.03125 43.5605V17.418C3.03125 17.2087 3.2009 17.0391 3.41016 17.0391Z" stroke="#4287FF" stroke-width="6.06209"/>
<path d="M62.5118 117.443L56.3736 122.353C56.0884 122.581 55.6842 122.576 55.4098 122.335C53.7035 120.836 47.9596 115.712 48.1143 114.79C48.4961 112.517 64.2196 105.887 64.2196 105.887" stroke="#4287FF" stroke-width="6.06209" stroke-linecap="round"/>
<path d="M45.6548 91.4893H66.8428C66.9782 91.4893 67.1113 91.5631 67.1492 91.693C68.1748 95.2052 46.7915 102.856 46.7915 102.856" stroke="#4287FF" stroke-width="6.06209" stroke-linecap="round"/>
<path fill-rule="evenodd" clip-rule="evenodd" d="M55.7742 53.54H44.4383C42.209 53.5404 39.9326 55.4405 39.9324 58.3506V72.1143C39.968 72.168 40.0088 72.2296 40.0574 72.3027L42.618 76.1484C42.7028 76.2759 42.7761 76.3831 42.8397 76.4775C42.9537 76.4781 43.0836 76.4805 43.2371 76.4805H55.7742V82.9258H43.2371C42.7761 82.9258 42.2114 82.9293 41.7127 82.8828C41.1476 82.8301 40.4452 82.6998 39.7166 82.3096C38.9882 81.9194 38.4907 81.4069 38.1336 80.9658C37.8186 80.5765 37.5082 80.1044 37.2528 79.7207L34.6922 75.875C34.4661 75.5355 33.9644 74.8397 33.7098 73.998C33.4553 73.1564 33.4871 72.3005 33.4871 71.8936V58.3506C33.4873 51.7976 38.7324 47.0951 44.4383 47.0947H55.7742V53.54ZM67.1824 47.0947C72.8942 47.095 78.1833 51.7786 78.1834 58.3506V71.8867C78.1834 72.2956 78.2158 73.1564 77.9588 74.002C77.7017 74.8475 77.1949 75.5461 76.9666 75.8867L74.3856 79.7383C74.13 80.1198 73.8198 80.5894 73.5047 80.9766C73.1475 81.4154 72.6495 81.9245 71.9227 82.3125C71.1959 82.7004 70.4959 82.8303 69.9324 82.8828C69.4354 82.9291 68.8723 82.9258 68.4129 82.9258H55.7752V76.4805H68.4129C68.5659 76.4805 68.6957 76.4781 68.8094 76.4775C68.873 76.3837 68.9462 76.277 69.0311 76.1504L71.6121 72.2979C71.6613 72.2245 71.7022 72.1623 71.7381 72.1084V58.3506C71.738 55.4594 69.4563 53.5403 67.1824 53.54H55.7752V47.0947H67.1824Z" fill="#4287FF"/>
</svg>
