<svg width="44" height="46" viewBox="0 0 44 46" fill="none" xmlns="http://www.w3.org/2000/svg">
<path d="M2.69141 35.0781C6.628 18.6671 7.24993 3.37814 7.25293 3.30371C8.93402 1.70475 17.81 1.37306 22.0381 1.40722C26.2661 1.37306 35.1422 1.70476 36.8232 3.30371C36.8263 3.37812 37.4482 18.6671 41.3848 35.0781C41.3686 35.0672 37.0515 32.1572 22.0381 32.1572C7.02385 32.1572 2.70715 35.0675 2.69141 35.0781Z" fill="#FF6262"/>
<path d="M22.0127 44.0459C15.3417 43.9776 2 42.9693 2 39.4844L2.41016 36.9736C2.42197 36.9558 4.50789 33.8517 21.9863 33.8486L21.9863 33.8477C21.9909 33.8477 21.9954 33.8486 22 33.8486C22.0042 33.8486 22.0085 33.8477 22.0127 33.8477L22.0127 33.8486C39.5412 33.8518 41.5889 36.9736 41.5889 36.9736L41.999 39.4844C41.999 42.9647 28.6924 43.9752 22.0127 44.0459Z" fill="#FF6262"/>
</svg>
