<svg width="106" height="138" viewBox="0 0 106 138" fill="none" xmlns="http://www.w3.org/2000/svg">
<rect x="6" y="2" width="94" height="126" rx="7" fill="white"/>
<rect x="6" y="2" width="94" height="126" rx="7" stroke="#D4D4D4" stroke-width="2"/>
<g filter="url(#filter0_dd_228_4545)">
<rect x="5" y="1" width="96" height="128" rx="8" fill="white" fill-opacity="0.01" shape-rendering="crispEdges"/>
</g>
<rect x="29" y="29.5" width="48" height="48" rx="4" fill="#262626"/>
<rect x="33" y="33.5" width="8.5" height="8.5" fill="white"/>
<rect x="43.5" y="33.5" width="8.5" height="8.5" fill="#262626"/>
<rect x="54" y="33.5" width="8.5" height="8.5" fill="white"/>
<rect x="64.5" y="33.5" width="8.5" height="8.5" fill="#262626"/>
<rect x="33" y="44" width="8.5" height="8.5" fill="#262626"/>
<rect x="43.5" y="44" width="8.5" height="8.5" fill="white"/>
<rect x="54" y="44" width="8.5" height="8.5" fill="#262626"/>
<rect x="64.5" y="44" width="8.5" height="8.5" fill="white"/>
<rect x="33" y="54.5" width="8.5" height="8.5" fill="white"/>
<rect x="43.5" y="54.5" width="8.5" height="8.5" fill="#262626"/>
<rect x="54" y="54.5" width="8.5" height="8.5" fill="white"/>
<rect x="64.5" y="54.5" width="8.5" height="8.5" fill="#262626"/>
<rect x="33" y="65" width="8.5" height="8.5" fill="#262626"/>
<rect x="43.5" y="65" width="8.5" height="8.5" fill="white"/>
<rect x="54" y="65" width="8.5" height="8.5" fill="#262626"/>
<rect x="64.5" y="65" width="8.5" height="8.5" fill="white"/>
<path d="M39.7012 94.44H47.9012V95.13H39.7012V94.44ZM43.3712 92.27H44.1912V94.64H43.3712V92.27ZM40.6612 87.87H41.4912V89.48H46.0912V87.87H46.9112V92.5H40.6612V87.87ZM41.4912 90.16V91.82H46.0912V90.16H41.4912ZM48.9004 91.53H57.0704V92.21H48.9004V91.53ZM52.9804 92.99C53.9471 92.99 54.7037 93.1333 55.2504 93.42C55.7971 93.7067 56.0704 94.11 56.0704 94.63C56.0704 95.15 55.7971 95.55 55.2504 95.83C54.7037 96.1167 53.9471 96.26 52.9804 96.26C52.0137 96.26 51.2537 96.1167 50.7004 95.83C50.1537 95.55 49.8804 95.15 49.8804 94.63C49.8804 94.11 50.1537 93.7067 50.7004 93.42C51.2537 93.1333 52.0137 92.99 52.9804 92.99ZM52.9804 93.65C52.5071 93.65 52.1004 93.6867 51.7604 93.76C51.4271 93.8333 51.1704 93.9433 50.9904 94.09C50.8104 94.2367 50.7204 94.4167 50.7204 94.63C50.7204 94.8367 50.8104 95.0133 50.9904 95.16C51.1704 95.3 51.4271 95.41 51.7604 95.49C52.1004 95.5633 52.5071 95.6 52.9804 95.6C53.4537 95.6 53.8571 95.5633 54.1904 95.49C54.5304 95.41 54.7904 95.3 54.9704 95.16C55.1504 95.0133 55.2404 94.8367 55.2404 94.63C55.2404 94.4167 55.1504 94.2367 54.9704 94.09C54.7904 93.9433 54.5304 93.8333 54.1904 93.76C53.8571 93.6867 53.4537 93.65 52.9804 93.65ZM52.4504 88.05H53.1804V88.32C53.1804 88.6133 53.1171 88.8867 52.9904 89.14C52.8704 89.3867 52.7004 89.6133 52.4804 89.82C52.2604 90.0267 52.0004 90.21 51.7004 90.37C51.4071 90.53 51.0871 90.6633 50.7404 90.77C50.3937 90.87 50.0304 90.9433 49.6504 90.99L49.3504 90.33C49.6771 90.2967 49.9904 90.2367 50.2904 90.15C50.5971 90.0633 50.8804 89.96 51.1404 89.84C51.4071 89.7133 51.6371 89.5733 51.8304 89.42C52.0237 89.26 52.1737 89.09 52.2804 88.91C52.3937 88.7233 52.4504 88.5267 52.4504 88.32V88.05ZM52.7904 88.05H53.5204V88.32C53.5204 88.5267 53.5737 88.7233 53.6804 88.91C53.7937 89.09 53.9471 89.26 54.1404 89.42C54.3337 89.58 54.5604 89.7233 54.8204 89.85C55.0871 89.97 55.3704 90.0733 55.6704 90.16C55.9771 90.24 56.2937 90.2967 56.6204 90.33L56.3204 90.99C55.9404 90.9433 55.5771 90.87 55.2304 90.77C54.8837 90.6633 54.5604 90.53 54.2604 90.37C53.9671 90.21 53.7104 90.0267 53.4904 89.82C53.2704 89.6133 53.0971 89.3833 52.9704 89.13C52.8504 88.8767 52.7904 88.6067 52.7904 88.32V88.05ZM49.6504 87.69H56.3304V88.37H49.6504V87.69ZM62.6196 90.3H65.1296V90.98H62.6196V90.3ZM60.4296 88.01H61.1096V89.63C61.1096 90.13 61.0463 90.6233 60.9196 91.11C60.7996 91.5967 60.6263 92.05 60.3996 92.47C60.1729 92.89 59.9063 93.2633 59.5996 93.59C59.2996 93.9167 58.9696 94.1767 58.6096 94.37L58.0896 93.7C58.4229 93.54 58.7296 93.3167 59.0096 93.03C59.2963 92.7433 59.5463 92.4167 59.7596 92.05C59.9729 91.6767 60.1363 91.2867 60.2496 90.88C60.3696 90.4667 60.4296 90.05 60.4296 89.63V88.01ZM60.5996 88.01H61.2696V89.63C61.2696 90.0367 61.3263 90.44 61.4396 90.84C61.5596 91.24 61.7263 91.6167 61.9396 91.97C62.1529 92.3167 62.3996 92.6267 62.6796 92.9C62.9663 93.1733 63.2729 93.3867 63.5996 93.54L63.0996 94.21C62.7396 94.0233 62.4063 93.7733 62.0996 93.46C61.7929 93.1467 61.5263 92.7867 61.2996 92.38C61.0796 91.9733 60.9063 91.5367 60.7796 91.07C60.6596 90.6033 60.5996 90.1233 60.5996 89.63V88.01ZM64.7196 87.23H65.5396V96.29H64.7196V87.23Z" fill="#525252"/>
<defs>
<filter id="filter0_dd_228_4545" x="0" y="0" width="106" height="138" filterUnits="userSpaceOnUse" color-interpolation-filters="sRGB">
<feFlood flood-opacity="0" result="BackgroundImageFix"/>
<feColorMatrix in="SourceAlpha" type="matrix" values="0 0 0 0 0 0 0 0 0 0 0 0 0 0 0 0 0 0 127 0" result="hardAlpha"/>
<feMorphology radius="2" operator="erode" in="SourceAlpha" result="effect1_dropShadow_228_4545"/>
<feOffset dy="2"/>
<feGaussianBlur stdDeviation="2"/>
<feComposite in2="hardAlpha" operator="out"/>
<feColorMatrix type="matrix" values="0 0 0 0 0 0 0 0 0 0 0 0 0 0 0 0 0 0 0.1 0"/>
<feBlend mode="normal" in2="BackgroundImageFix" result="effect1_dropShadow_228_4545"/>
<feColorMatrix in="SourceAlpha" type="matrix" values="0 0 0 0 0 0 0 0 0 0 0 0 0 0 0 0 0 0 127 0" result="hardAlpha"/>
<feMorphology radius="1" operator="erode" in="SourceAlpha" result="effect2_dropShadow_228_4545"/>
<feOffset dy="4"/>
<feGaussianBlur stdDeviation="3"/>
<feComposite in2="hardAlpha" operator="out"/>
<feColorMatrix type="matrix" values="0 0 0 0 0 0 0 0 0 0 0 0 0 0 0 0 0 0 0.1 0"/>
<feBlend mode="normal" in2="effect1_dropShadow_228_4545" result="effect2_dropShadow_228_4545"/>
<feBlend mode="normal" in="SourceGraphic" in2="effect2_dropShadow_228_4545" result="shape"/>
</filter>
</defs>
</svg>
