<svg width="246" height="152" viewBox="0 0 246 152" fill="none" xmlns="http://www.w3.org/2000/svg">
<rect x="6" y="3" width="94" height="126" rx="7" fill="white"/>
<rect x="6" y="3" width="94" height="126" rx="7" stroke="#D4D4D4" stroke-width="2"/>
<g filter="url(#filter0_dd_228_4544)">
<rect x="5" y="2" width="96" height="128" rx="8" fill="white" fill-opacity="0.01" shape-rendering="crispEdges"/>
</g>
<rect x="29" y="30.5" width="48" height="48" rx="4" fill="#262626"/>
<rect x="33" y="34.5" width="8.5" height="8.5" fill="white"/>
<rect x="43.5" y="34.5" width="8.5" height="8.5" fill="#262626"/>
<rect x="54" y="34.5" width="8.5" height="8.5" fill="white"/>
<rect x="64.5" y="34.5" width="8.5" height="8.5" fill="#262626"/>
<rect x="33" y="45" width="8.5" height="8.5" fill="#262626"/>
<rect x="43.5" y="45" width="8.5" height="8.5" fill="white"/>
<rect x="54" y="45" width="8.5" height="8.5" fill="#262626"/>
<rect x="64.5" y="45" width="8.5" height="8.5" fill="white"/>
<rect x="33" y="55.5" width="8.5" height="8.5" fill="white"/>
<rect x="43.5" y="55.5" width="8.5" height="8.5" fill="#262626"/>
<rect x="54" y="55.5" width="8.5" height="8.5" fill="white"/>
<rect x="64.5" y="55.5" width="8.5" height="8.5" fill="#262626"/>
<rect x="33" y="66" width="8.5" height="8.5" fill="#262626"/>
<rect x="43.5" y="66" width="8.5" height="8.5" fill="white"/>
<rect x="54" y="66" width="8.5" height="8.5" fill="#262626"/>
<rect x="64.5" y="66" width="8.5" height="8.5" fill="white"/>
<path d="M39.7012 95.44H47.9012V96.13H39.7012V95.44ZM43.3712 93.27H44.1912V95.64H43.3712V93.27ZM40.6612 88.87H41.4912V90.48H46.0912V88.87H46.9112V93.5H40.6612V88.87ZM41.4912 91.16V92.82H46.0912V91.16H41.4912ZM48.9004 92.53H57.0704V93.21H48.9004V92.53ZM52.9804 93.99C53.9471 93.99 54.7037 94.1333 55.2504 94.42C55.7971 94.7067 56.0704 95.11 56.0704 95.63C56.0704 96.15 55.7971 96.55 55.2504 96.83C54.7037 97.1167 53.9471 97.26 52.9804 97.26C52.0137 97.26 51.2537 97.1167 50.7004 96.83C50.1537 96.55 49.8804 96.15 49.8804 95.63C49.8804 95.11 50.1537 94.7067 50.7004 94.42C51.2537 94.1333 52.0137 93.99 52.9804 93.99ZM52.9804 94.65C52.5071 94.65 52.1004 94.6867 51.7604 94.76C51.4271 94.8333 51.1704 94.9433 50.9904 95.09C50.8104 95.2367 50.7204 95.4167 50.7204 95.63C50.7204 95.8367 50.8104 96.0133 50.9904 96.16C51.1704 96.3 51.4271 96.41 51.7604 96.49C52.1004 96.5633 52.5071 96.6 52.9804 96.6C53.4537 96.6 53.8571 96.5633 54.1904 96.49C54.5304 96.41 54.7904 96.3 54.9704 96.16C55.1504 96.0133 55.2404 95.8367 55.2404 95.63C55.2404 95.4167 55.1504 95.2367 54.9704 95.09C54.7904 94.9433 54.5304 94.8333 54.1904 94.76C53.8571 94.6867 53.4537 94.65 52.9804 94.65ZM52.4504 89.05H53.1804V89.32C53.1804 89.6133 53.1171 89.8867 52.9904 90.14C52.8704 90.3867 52.7004 90.6133 52.4804 90.82C52.2604 91.0267 52.0004 91.21 51.7004 91.37C51.4071 91.53 51.0871 91.6633 50.7404 91.77C50.3937 91.87 50.0304 91.9433 49.6504 91.99L49.3504 91.33C49.6771 91.2967 49.9904 91.2367 50.2904 91.15C50.5971 91.0633 50.8804 90.96 51.1404 90.84C51.4071 90.7133 51.6371 90.5733 51.8304 90.42C52.0237 90.26 52.1737 90.09 52.2804 89.91C52.3937 89.7233 52.4504 89.5267 52.4504 89.32V89.05ZM52.7904 89.05H53.5204V89.32C53.5204 89.5267 53.5737 89.7233 53.6804 89.91C53.7937 90.09 53.9471 90.26 54.1404 90.42C54.3337 90.58 54.5604 90.7233 54.8204 90.85C55.0871 90.97 55.3704 91.0733 55.6704 91.16C55.9771 91.24 56.2937 91.2967 56.6204 91.33L56.3204 91.99C55.9404 91.9433 55.5771 91.87 55.2304 91.77C54.8837 91.6633 54.5604 91.53 54.2604 91.37C53.9671 91.21 53.7104 91.0267 53.4904 90.82C53.2704 90.6133 53.0971 90.3833 52.9704 90.13C52.8504 89.8767 52.7904 89.6067 52.7904 89.32V89.05ZM49.6504 88.69H56.3304V89.37H49.6504V88.69ZM62.6196 91.3H65.1296V91.98H62.6196V91.3ZM60.4296 89.01H61.1096V90.63C61.1096 91.13 61.0463 91.6233 60.9196 92.11C60.7996 92.5967 60.6263 93.05 60.3996 93.47C60.1729 93.89 59.9063 94.2633 59.5996 94.59C59.2996 94.9167 58.9696 95.1767 58.6096 95.37L58.0896 94.7C58.4229 94.54 58.7296 94.3167 59.0096 94.03C59.2963 93.7433 59.5463 93.4167 59.7596 93.05C59.9729 92.6767 60.1363 92.2867 60.2496 91.88C60.3696 91.4667 60.4296 91.05 60.4296 90.63V89.01ZM60.5996 89.01H61.2696V90.63C61.2696 91.0367 61.3263 91.44 61.4396 91.84C61.5596 92.24 61.7263 92.6167 61.9396 92.97C62.1529 93.3167 62.3996 93.6267 62.6796 93.9C62.9663 94.1733 63.2729 94.3867 63.5996 94.54L63.0996 95.21C62.7396 95.0233 62.4063 94.7733 62.0996 94.46C61.7929 94.1467 61.5263 93.7867 61.2996 93.38C61.0796 92.9733 60.9063 92.5367 60.7796 92.07C60.6596 91.6033 60.5996 91.1233 60.5996 90.63V89.01ZM64.7196 88.23H65.5396V97.29H64.7196V88.23Z" fill="#525252"/>
<path d="M137.559 67.059C138.145 66.473 138.145 65.5215 137.559 64.9355L130.059 57.4355C129.473 56.8496 128.522 56.8496 127.936 57.4355C127.35 58.0215 127.35 58.973 127.936 59.559L132.881 64.4996H118.5C117.67 64.4996 117 65.1699 117 65.9996C117 66.8293 117.67 67.4996 118.5 67.4996H132.877L127.941 72.4402C127.355 73.0262 127.355 73.9777 127.941 74.5637C128.527 75.1496 129.478 75.1496 130.064 74.5637L137.564 67.0637L137.559 67.059Z" fill="#A3A3A3"/>
<rect x="155" y="3" width="78" height="126" rx="11" fill="#262626"/>
<rect x="155" y="3" width="78" height="126" rx="11" stroke="#404040" stroke-width="2"/>
<g filter="url(#filter1_dd_228_4544)">
<rect x="154" y="2" width="80" height="128" rx="12" fill="white" fill-opacity="0.01" shape-rendering="crispEdges"/>
</g>
<rect x="164" y="24" width="60" height="96" rx="8" fill="white"/>
<path d="M189.336 66.9859L188.745 68.3687C187.869 67.9234 187.062 67.375 186.331 66.7328L187.395 65.6688C187.981 66.1797 188.633 66.625 189.336 66.9859ZM183.903 58.75H182.398C182.464 59.7437 182.652 60.7047 182.947 61.6141L184.344 61.0562C184.114 60.3203 183.959 59.5469 183.903 58.75ZM183.903 57.25C183.969 56.3687 184.147 55.5156 184.423 54.7141L183.041 54.1234C182.689 55.1078 182.469 56.1578 182.398 57.25H183.903ZM185.014 53.3359C185.38 52.6375 185.82 51.9859 186.331 51.3906L185.267 50.3266C184.625 51.0578 184.072 51.8641 183.631 52.7406L185.014 53.3359ZM200.609 65.6688C199.958 66.2313 199.231 66.7141 198.448 67.0938L199.006 68.4906C199.977 68.0266 200.872 67.4312 201.673 66.7281L200.609 65.6688ZM187.391 50.3312C188.042 49.7687 188.769 49.2859 189.552 48.9062L188.994 47.5094C188.023 47.9734 187.128 48.5687 186.331 49.2719L187.391 50.3312ZM202.986 62.6641C202.62 63.3625 202.18 64.0141 201.669 64.6094L202.733 65.6734C203.375 64.9422 203.928 64.1313 204.369 63.2594L202.986 62.6641ZM204.097 58.75C204.031 59.6313 203.853 60.4844 203.577 61.2859L204.959 61.8766C205.311 60.8875 205.531 59.8375 205.597 58.7453H204.097V58.75ZM197.056 67.6562C196.32 67.8906 195.547 68.0406 194.75 68.0969V69.6016C195.744 69.5359 196.705 69.3484 197.614 69.0531L197.056 67.6562ZM193.25 68.0969C192.369 68.0312 191.516 67.8531 190.714 67.5766L190.123 68.9594C191.113 69.3109 192.162 69.5312 193.255 69.5969V68.0969H193.25ZM203.656 54.9438C203.891 55.6797 204.041 56.4531 204.097 57.25H205.602C205.536 56.2563 205.348 55.2953 205.053 54.3859L203.656 54.9438ZM186.331 64.6094C185.769 63.9578 185.286 63.2312 184.906 62.4484L183.509 63.0063C183.973 63.9766 184.569 64.8719 185.272 65.6734L186.331 64.6094ZM194.75 47.9031C195.631 47.9688 196.48 48.1469 197.286 48.4234L197.877 47.0406C196.892 46.6891 195.842 46.4688 194.75 46.3984V47.9031ZM190.944 48.3438C191.68 48.1094 192.453 47.9594 193.25 47.9031V46.3984C192.256 46.4641 191.295 46.6516 190.386 46.9469L190.944 48.3438ZM202.733 50.3266L201.669 51.3906C202.231 52.0422 202.714 52.7687 203.098 53.5516L204.495 52.9938C204.031 52.0234 203.436 51.1281 202.733 50.3266ZM200.609 50.3312L201.673 49.2672C200.942 48.625 200.136 48.0719 199.259 47.6313L198.669 49.0141C199.363 49.3797 200.019 49.8203 200.609 50.3312Z" fill="#404040"/>
<path opacity="0.666725" d="M192.688 63.0625C192.688 63.7869 193.276 64.375 194 64.375C194.724 64.375 195.312 63.7869 195.312 63.0625C195.312 62.3381 194.724 61.75 194 61.75C193.276 61.75 192.688 62.3381 192.688 63.0625Z" fill="#404040"/>
<path opacity="0.666725" d="M192.899 52.3047L193.227 60.1797C193.241 60.4797 193.49 60.7188 193.79 60.7188H194.211C194.511 60.7188 194.76 60.4797 194.774 60.1797L195.102 52.3047C195.116 51.9859 194.858 51.7188 194.54 51.7188H193.461C193.143 51.7188 192.885 51.9859 192.899 52.3047Z" fill="#404040"/>
<path d="M188.315 75.384H188.979V80.712H188.315V75.384ZM188.771 77.584H190.043V78.136H188.771V77.584ZM184.475 81.92H189.299V82.464H184.475V81.92ZM184.475 80.168H185.131V82.136H184.475V80.168ZM185.379 75.896C185.741 75.896 186.064 75.9733 186.347 76.128C186.629 76.2773 186.853 76.4853 187.019 76.752C187.184 77.0187 187.267 77.328 187.267 77.68C187.267 78.0213 187.184 78.328 187.019 78.6C186.853 78.872 186.629 79.0853 186.347 79.24C186.064 79.3893 185.741 79.464 185.379 79.464C185.021 79.464 184.699 79.3893 184.411 79.24C184.128 79.0853 183.904 78.872 183.739 78.6C183.573 78.328 183.491 78.0213 183.491 77.68C183.491 77.328 183.573 77.0187 183.739 76.752C183.904 76.4853 184.128 76.2773 184.411 76.128C184.699 75.9733 185.021 75.896 185.379 75.896ZM185.379 76.472C185.144 76.472 184.933 76.5227 184.747 76.624C184.56 76.7253 184.411 76.8667 184.299 77.048C184.192 77.2293 184.139 77.44 184.139 77.68C184.139 77.9147 184.192 78.1227 184.299 78.304C184.411 78.4853 184.56 78.6267 184.747 78.728C184.933 78.8293 185.144 78.88 185.379 78.88C185.613 78.88 185.824 78.8293 186.011 78.728C186.203 78.6267 186.352 78.4853 186.459 78.304C186.571 78.1227 186.627 77.9147 186.627 77.68C186.627 77.44 186.571 77.2293 186.459 77.048C186.352 76.8667 186.203 76.7253 186.011 76.624C185.824 76.5227 185.613 76.472 185.379 76.472ZM194.554 77.384H196.386V77.928H194.554V77.384ZM196.01 75.392H196.674V80.696H196.01V75.392ZM192.058 81.92H196.874V82.464H192.058V81.92ZM192.058 80.224H192.714V82.192H192.058V80.224ZM192.562 76.288H193.106V76.872C193.106 77.3093 193.021 77.7227 192.85 78.112C192.685 78.496 192.45 78.832 192.146 79.12C191.842 79.4027 191.49 79.6213 191.09 79.776L190.746 79.24C191.013 79.144 191.255 79.016 191.474 78.856C191.698 78.696 191.893 78.512 192.058 78.304C192.223 78.096 192.349 77.8693 192.434 77.624C192.519 77.3787 192.562 77.128 192.562 76.872V76.288ZM192.69 76.288H193.234V76.872C193.234 77.1813 193.306 77.4827 193.45 77.776C193.594 78.0693 193.799 78.3307 194.066 78.56C194.333 78.784 194.639 78.9573 194.986 79.08L194.65 79.608C194.255 79.464 193.911 79.256 193.618 78.984C193.325 78.7067 193.095 78.3867 192.93 78.024C192.77 77.6613 192.69 77.2773 192.69 76.872V76.288ZM190.954 75.976H194.818V76.52H190.954V75.976ZM203.033 75.392H203.697V80.816H203.033V75.392ZM203.489 77.768H204.761V78.32H203.489V77.768ZM198.097 76.272H202.369V76.808H198.097V76.272ZM200.233 77.2C200.575 77.2 200.876 77.2587 201.137 77.376C201.399 77.488 201.601 77.6453 201.745 77.848C201.889 78.0453 201.961 78.28 201.961 78.552C201.961 78.824 201.889 79.0613 201.745 79.264C201.601 79.4613 201.399 79.616 201.137 79.728C200.876 79.84 200.575 79.896 200.233 79.896C199.892 79.896 199.591 79.84 199.329 79.728C199.068 79.616 198.863 79.4613 198.713 79.264C198.569 79.0613 198.497 78.824 198.497 78.552C198.497 78.28 198.569 78.0453 198.713 77.848C198.863 77.6453 199.068 77.488 199.329 77.376C199.591 77.2587 199.892 77.2 200.233 77.2ZM200.233 77.72C199.908 77.72 199.644 77.7973 199.441 77.952C199.239 78.1013 199.137 78.3013 199.137 78.552C199.137 78.8027 199.239 79.0027 199.441 79.152C199.644 79.3013 199.908 79.376 200.233 79.376C200.564 79.376 200.828 79.3013 201.025 79.152C201.228 79.0027 201.329 78.8027 201.329 78.552C201.329 78.3013 201.228 78.1013 201.025 77.952C200.828 77.7973 200.564 77.72 200.233 77.72ZM199.905 75.392H200.569V76.544H199.905V75.392ZM199.193 81.92H204.017V82.464H199.193V81.92ZM199.193 80.384H199.849V82.144H199.193V80.384ZM180.146 87.384H180.81V94.632H180.146V87.384ZM175.354 92.272H175.938C176.418 92.272 176.85 92.2667 177.234 92.256C177.618 92.2453 177.981 92.2213 178.322 92.184C178.669 92.1467 179.021 92.096 179.378 92.032L179.442 92.592C179.079 92.6613 178.722 92.7147 178.37 92.752C178.018 92.784 177.647 92.808 177.258 92.824C176.869 92.8347 176.429 92.84 175.938 92.84H175.354V92.272ZM175.354 88.072H178.77V88.624H176.018V92.48H175.354V88.072ZM184.161 88.424H184.705V89.592C184.705 89.976 184.652 90.3547 184.545 90.728C184.439 91.096 184.289 91.4453 184.097 91.776C183.911 92.1013 183.692 92.3893 183.441 92.64C183.191 92.8907 182.921 93.088 182.633 93.232L182.249 92.704C182.511 92.576 182.756 92.4027 182.985 92.184C183.22 91.9653 183.425 91.7147 183.601 91.432C183.777 91.1493 183.913 90.8507 184.009 90.536C184.111 90.2213 184.161 89.9067 184.161 89.592V88.424ZM184.297 88.424H184.833V89.592C184.833 89.896 184.881 90.2 184.977 90.504C185.079 90.8027 185.217 91.0853 185.393 91.352C185.575 91.6133 185.78 91.8453 186.009 92.048C186.244 92.2507 186.495 92.4107 186.761 92.528L186.393 93.056C186.1 92.9173 185.825 92.7307 185.569 92.496C185.313 92.2613 185.089 91.992 184.897 91.688C184.711 91.3787 184.564 91.048 184.457 90.696C184.351 90.3387 184.297 89.9707 184.297 89.592V88.424ZM182.481 88.128H186.521V88.68H182.481V88.128ZM187.505 87.384H188.169V94.624H187.505V87.384ZM189.977 90.472H190.505C190.969 90.472 191.374 90.4693 191.721 90.464C192.067 90.4533 192.39 90.4373 192.689 90.416C192.987 90.3893 193.294 90.3493 193.609 90.296L193.665 90.832C193.345 90.8853 193.03 90.9253 192.721 90.952C192.417 90.9733 192.086 90.9893 191.729 91C191.377 91.0053 190.969 91.008 190.505 91.008H189.977V90.472ZM189.977 87.832H193.233V88.368H190.633V90.8H189.977V87.832ZM190.441 89.128H193.041V89.64H190.441V89.128ZM193.537 89.048H195.057V89.584H193.537V89.048ZM194.897 87.384H195.553V91.288H194.897V87.384ZM190.897 91.616H195.553V93.304H191.569V94.36H190.913V92.808H194.897V92.144H190.897V91.616ZM190.913 94.016H195.825V94.544H190.913V94.016ZM204.467 87.384H205.131V94.624H204.467V87.384ZM202.347 88.168H203.003C203.003 88.6907 202.939 89.1947 202.811 89.68C202.688 90.1653 202.493 90.6267 202.227 91.064C201.96 91.496 201.613 91.8987 201.187 92.272C200.76 92.6453 200.243 92.9787 199.635 93.272L199.283 92.736C199.981 92.4 200.557 92.008 201.011 91.56C201.464 91.112 201.8 90.6133 202.019 90.064C202.237 89.5093 202.347 88.912 202.347 88.272V88.168ZM199.619 88.168H202.627V88.704H199.619V88.168ZM206.546 91.368H213.106V91.912H206.546V91.368ZM207.378 87.568H212.266V89.328H208.05V90.296H207.394V88.832H211.61V88.096H207.378V87.568ZM207.394 90.08H212.418V90.608H207.394V90.08ZM209.498 90.352H210.154V91.632H209.498V90.352ZM207.282 92.464H212.306V94.552H211.642V93H207.282V92.464Z" fill="#525252"/>
<rect x="178" y="12" width="32" height="4" rx="2" fill="#525252"/>
<defs>
<filter id="filter0_dd_228_4544" x="0" y="1" width="106" height="138" filterUnits="userSpaceOnUse" color-interpolation-filters="sRGB">
<feFlood flood-opacity="0" result="BackgroundImageFix"/>
<feColorMatrix in="SourceAlpha" type="matrix" values="0 0 0 0 0 0 0 0 0 0 0 0 0 0 0 0 0 0 127 0" result="hardAlpha"/>
<feMorphology radius="2" operator="erode" in="SourceAlpha" result="effect1_dropShadow_228_4544"/>
<feOffset dy="2"/>
<feGaussianBlur stdDeviation="2"/>
<feComposite in2="hardAlpha" operator="out"/>
<feColorMatrix type="matrix" values="0 0 0 0 0 0 0 0 0 0 0 0 0 0 0 0 0 0 0.1 0"/>
<feBlend mode="normal" in2="BackgroundImageFix" result="effect1_dropShadow_228_4544"/>
<feColorMatrix in="SourceAlpha" type="matrix" values="0 0 0 0 0 0 0 0 0 0 0 0 0 0 0 0 0 0 127 0" result="hardAlpha"/>
<feMorphology radius="1" operator="erode" in="SourceAlpha" result="effect2_dropShadow_228_4544"/>
<feOffset dy="4"/>
<feGaussianBlur stdDeviation="3"/>
<feComposite in2="hardAlpha" operator="out"/>
<feColorMatrix type="matrix" values="0 0 0 0 0 0 0 0 0 0 0 0 0 0 0 0 0 0 0.1 0"/>
<feBlend mode="normal" in2="effect1_dropShadow_228_4544" result="effect2_dropShadow_228_4544"/>
<feBlend mode="normal" in="SourceGraphic" in2="effect2_dropShadow_228_4544" result="shape"/>
</filter>
<filter id="filter1_dd_228_4544" x="142" y="0" width="104" height="152" filterUnits="userSpaceOnUse" color-interpolation-filters="sRGB">
<feFlood flood-opacity="0" result="BackgroundImageFix"/>
<feColorMatrix in="SourceAlpha" type="matrix" values="0 0 0 0 0 0 0 0 0 0 0 0 0 0 0 0 0 0 127 0" result="hardAlpha"/>
<feMorphology radius="4" operator="erode" in="SourceAlpha" result="effect1_dropShadow_228_4544"/>
<feOffset dy="4"/>
<feGaussianBlur stdDeviation="3"/>
<feComposite in2="hardAlpha" operator="out"/>
<feColorMatrix type="matrix" values="0 0 0 0 0 0 0 0 0 0 0 0 0 0 0 0 0 0 0.1 0"/>
<feBlend mode="normal" in2="BackgroundImageFix" result="effect1_dropShadow_228_4544"/>
<feColorMatrix in="SourceAlpha" type="matrix" values="0 0 0 0 0 0 0 0 0 0 0 0 0 0 0 0 0 0 127 0" result="hardAlpha"/>
<feMorphology radius="3" operator="erode" in="SourceAlpha" result="effect2_dropShadow_228_4544"/>
<feOffset dy="10"/>
<feGaussianBlur stdDeviation="7.5"/>
<feComposite in2="hardAlpha" operator="out"/>
<feColorMatrix type="matrix" values="0 0 0 0 0 0 0 0 0 0 0 0 0 0 0 0 0 0 0.1 0"/>
<feBlend mode="normal" in2="effect1_dropShadow_228_4544" result="effect2_dropShadow_228_4544"/>
<feBlend mode="normal" in="SourceGraphic" in2="effect2_dropShadow_228_4544" result="shape"/>
</filter>
</defs>
</svg>
