<svg width="104" height="152" viewBox="0 0 104 152" fill="none" xmlns="http://www.w3.org/2000/svg">
<rect x="13" y="3" width="78" height="126" rx="11" fill="#262626"/>
<rect x="13" y="3" width="78" height="126" rx="11" stroke="#404040" stroke-width="2"/>
<g filter="url(#filter0_dd_228_4572)">
<rect x="12" y="2" width="80" height="128" rx="12" fill="white" fill-opacity="0.01" shape-rendering="crispEdges"/>
</g>
<rect x="22" y="24" width="60" height="96" rx="8" fill="white"/>
<path d="M47.3359 66.9859L46.7453 68.3687C45.8688 67.9234 45.0625 67.375 44.3312 66.7328L45.3953 65.6688C45.9812 66.1797 46.6328 66.625 47.3359 66.9859ZM41.9031 58.75H40.3984C40.4641 59.7437 40.6516 60.7047 40.9469 61.6141L42.3438 61.0562C42.1141 60.3203 41.9594 59.5469 41.9031 58.75ZM41.9031 57.25C41.9688 56.3687 42.1469 55.5156 42.4234 54.7141L41.0406 54.1234C40.6891 55.1078 40.4688 56.1578 40.3984 57.25H41.9031ZM43.0141 53.3359C43.3797 52.6375 43.8203 51.9859 44.3312 51.3906L43.2672 50.3266C42.625 51.0578 42.0719 51.8641 41.6313 52.7406L43.0141 53.3359ZM58.6094 65.6688C57.9578 66.2313 57.2312 66.7141 56.4484 67.0938L57.0063 68.4906C57.9766 68.0266 58.8719 67.4312 59.6734 66.7281L58.6094 65.6688ZM45.3906 50.3312C46.0422 49.7687 46.7687 49.2859 47.5516 48.9062L46.9938 47.5094C46.0234 47.9734 45.1281 48.5687 44.3312 49.2719L45.3906 50.3312ZM60.9859 62.6641C60.6203 63.3625 60.1797 64.0141 59.6688 64.6094L60.7328 65.6734C61.375 64.9422 61.9281 64.1313 62.3687 63.2594L60.9859 62.6641ZM62.0969 58.75C62.0312 59.6313 61.8531 60.4844 61.5766 61.2859L62.9594 61.8766C63.3109 60.8875 63.5312 59.8375 63.5969 58.7453H62.0969V58.75ZM55.0562 67.6562C54.3203 67.8906 53.5469 68.0406 52.75 68.0969V69.6016C53.7437 69.5359 54.7047 69.3484 55.6141 69.0531L55.0562 67.6562ZM51.25 68.0969C50.3687 68.0312 49.5156 67.8531 48.7141 67.5766L48.1234 68.9594C49.1125 69.3109 50.1625 69.5312 51.2547 69.5969V68.0969H51.25ZM61.6562 54.9438C61.8906 55.6797 62.0406 56.4531 62.0969 57.25H63.6016C63.5359 56.2563 63.3484 55.2953 63.0531 54.3859L61.6562 54.9438ZM44.3312 64.6094C43.7687 63.9578 43.2859 63.2312 42.9062 62.4484L41.5094 63.0063C41.9734 63.9766 42.5687 64.8719 43.2719 65.6734L44.3312 64.6094ZM52.75 47.9031C53.6313 47.9688 54.4797 48.1469 55.2859 48.4234L55.8766 47.0406C54.8922 46.6891 53.8422 46.4688 52.75 46.3984V47.9031ZM48.9438 48.3438C49.6797 48.1094 50.4531 47.9594 51.25 47.9031V46.3984C50.2563 46.4641 49.2953 46.6516 48.3859 46.9469L48.9438 48.3438ZM60.7328 50.3266L59.6688 51.3906C60.2313 52.0422 60.7141 52.7687 61.0984 53.5516L62.4953 52.9938C62.0312 52.0234 61.4359 51.1281 60.7328 50.3266ZM58.6094 50.3312L59.6734 49.2672C58.9422 48.625 58.1359 48.0719 57.2594 47.6313L56.6688 49.0141C57.3625 49.3797 58.0187 49.8203 58.6094 50.3312Z" fill="#404040"/>
<path opacity="0.666725" d="M50.6875 63.0625C50.6875 63.7869 51.2756 64.375 52 64.375C52.7244 64.375 53.3125 63.7869 53.3125 63.0625C53.3125 62.3381 52.7244 61.75 52 61.75C51.2756 61.75 50.6875 62.3381 50.6875 63.0625Z" fill="#404040"/>
<path opacity="0.666725" d="M50.899 52.3047L51.2271 60.1797C51.2412 60.4797 51.4896 60.7188 51.7896 60.7188H52.2115C52.5115 60.7188 52.7599 60.4797 52.774 60.1797L53.1021 52.3047C53.1162 51.9859 52.8584 51.7188 52.5396 51.7188H51.4615C51.1427 51.7188 50.8849 51.9859 50.899 52.3047Z" fill="#404040"/>
<path d="M46.3147 75.384H46.9787V80.712H46.3147V75.384ZM46.7707 77.584H48.0427V78.136H46.7707V77.584ZM42.4747 81.92H47.2987V82.464H42.4747V81.92ZM42.4747 80.168H43.1307V82.136H42.4747V80.168ZM43.3787 75.896C43.7413 75.896 44.064 75.9733 44.3467 76.128C44.6293 76.2773 44.8533 76.4853 45.0187 76.752C45.184 77.0187 45.2667 77.328 45.2667 77.68C45.2667 78.0213 45.184 78.328 45.0187 78.6C44.8533 78.872 44.6293 79.0853 44.3467 79.24C44.064 79.3893 43.7413 79.464 43.3787 79.464C43.0213 79.464 42.6987 79.3893 42.4107 79.24C42.128 79.0853 41.904 78.872 41.7387 78.6C41.5733 78.328 41.4907 78.0213 41.4907 77.68C41.4907 77.328 41.5733 77.0187 41.7387 76.752C41.904 76.4853 42.128 76.2773 42.4107 76.128C42.6987 75.9733 43.0213 75.896 43.3787 75.896ZM43.3787 76.472C43.144 76.472 42.9333 76.5227 42.7467 76.624C42.56 76.7253 42.4107 76.8667 42.2987 77.048C42.192 77.2293 42.1387 77.44 42.1387 77.68C42.1387 77.9147 42.192 78.1227 42.2987 78.304C42.4107 78.4853 42.56 78.6267 42.7467 78.728C42.9333 78.8293 43.144 78.88 43.3787 78.88C43.6133 78.88 43.824 78.8293 44.0107 78.728C44.2027 78.6267 44.352 78.4853 44.4587 78.304C44.5707 78.1227 44.6267 77.9147 44.6267 77.68C44.6267 77.44 44.5707 77.2293 44.4587 77.048C44.352 76.8667 44.2027 76.7253 44.0107 76.624C43.824 76.5227 43.6133 76.472 43.3787 76.472ZM52.554 77.384H54.386V77.928H52.554V77.384ZM54.01 75.392H54.674V80.696H54.01V75.392ZM50.058 81.92H54.874V82.464H50.058V81.92ZM50.058 80.224H50.714V82.192H50.058V80.224ZM50.562 76.288H51.106V76.872C51.106 77.3093 51.0207 77.7227 50.85 78.112C50.6847 78.496 50.45 78.832 50.146 79.12C49.842 79.4027 49.49 79.6213 49.09 79.776L48.746 79.24C49.0127 79.144 49.2554 79.016 49.474 78.856C49.698 78.696 49.8927 78.512 50.058 78.304C50.2234 78.096 50.3487 77.8693 50.434 77.624C50.5194 77.3787 50.562 77.128 50.562 76.872V76.288ZM50.69 76.288H51.234V76.872C51.234 77.1813 51.306 77.4827 51.45 77.776C51.594 78.0693 51.7994 78.3307 52.066 78.56C52.3327 78.784 52.6394 78.9573 52.986 79.08L52.65 79.608C52.2554 79.464 51.9114 79.256 51.618 78.984C51.3247 78.7067 51.0954 78.3867 50.93 78.024C50.77 77.6613 50.69 77.2773 50.69 76.872V76.288ZM48.954 75.976H52.818V76.52H48.954V75.976ZM61.0334 75.392H61.6974V80.816H61.0334V75.392ZM61.4894 77.768H62.7614V78.32H61.4894V77.768ZM56.0974 76.272H60.3694V76.808H56.0974V76.272ZM58.2334 77.2C58.5747 77.2 58.8761 77.2587 59.1374 77.376C59.3987 77.488 59.6014 77.6453 59.7454 77.848C59.8894 78.0453 59.9614 78.28 59.9614 78.552C59.9614 78.824 59.8894 79.0613 59.7454 79.264C59.6014 79.4613 59.3987 79.616 59.1374 79.728C58.8761 79.84 58.5747 79.896 58.2334 79.896C57.8921 79.896 57.5907 79.84 57.3294 79.728C57.0681 79.616 56.8627 79.4613 56.7134 79.264C56.5694 79.0613 56.4974 78.824 56.4974 78.552C56.4974 78.28 56.5694 78.0453 56.7134 77.848C56.8627 77.6453 57.0681 77.488 57.3294 77.376C57.5907 77.2587 57.8921 77.2 58.2334 77.2ZM58.2334 77.72C57.9081 77.72 57.6441 77.7973 57.4414 77.952C57.2387 78.1013 57.1374 78.3013 57.1374 78.552C57.1374 78.8027 57.2387 79.0027 57.4414 79.152C57.6441 79.3013 57.9081 79.376 58.2334 79.376C58.5641 79.376 58.8281 79.3013 59.0254 79.152C59.2281 79.0027 59.3294 78.8027 59.3294 78.552C59.3294 78.3013 59.2281 78.1013 59.0254 77.952C58.8281 77.7973 58.5641 77.72 58.2334 77.72ZM57.9054 75.392H58.5694V76.544H57.9054V75.392ZM57.1934 81.92H62.0174V82.464H57.1934V81.92ZM57.1934 80.384H57.8494V82.144H57.1934V80.384ZM38.146 87.384H38.81V94.632H38.146V87.384ZM33.354 92.272H33.938C34.418 92.272 34.85 92.2667 35.234 92.256C35.618 92.2453 35.9807 92.2213 36.322 92.184C36.6687 92.1467 37.0207 92.096 37.378 92.032L37.442 92.592C37.0793 92.6613 36.722 92.7147 36.37 92.752C36.018 92.784 35.6473 92.808 35.258 92.824C34.8687 92.8347 34.4287 92.84 33.938 92.84H33.354V92.272ZM33.354 88.072H36.77V88.624H34.018V92.48H33.354V88.072ZM42.1614 88.424H42.7054V89.592C42.7054 89.976 42.652 90.3547 42.5454 90.728C42.4387 91.096 42.2894 91.4453 42.0974 91.776C41.9107 92.1013 41.692 92.3893 41.4414 92.64C41.1907 92.8907 40.9214 93.088 40.6334 93.232L40.2494 92.704C40.5107 92.576 40.756 92.4027 40.9854 92.184C41.22 91.9653 41.4254 91.7147 41.6014 91.432C41.7774 91.1493 41.9134 90.8507 42.0094 90.536C42.1107 90.2213 42.1614 89.9067 42.1614 89.592V88.424ZM42.2974 88.424H42.8334V89.592C42.8334 89.896 42.8814 90.2 42.9774 90.504C43.0787 90.8027 43.2174 91.0853 43.3934 91.352C43.5747 91.6133 43.78 91.8453 44.0094 92.048C44.244 92.2507 44.4947 92.4107 44.7614 92.528L44.3934 93.056C44.1 92.9173 43.8254 92.7307 43.5694 92.496C43.3134 92.2613 43.0894 91.992 42.8974 91.688C42.7107 91.3787 42.564 91.048 42.4574 90.696C42.3507 90.3387 42.2974 89.9707 42.2974 89.592V88.424ZM40.4814 88.128H44.5214V88.68H40.4814V88.128ZM45.5054 87.384H46.1694V94.624H45.5054V87.384ZM47.9767 90.472H48.5047C48.9687 90.472 49.3741 90.4693 49.7207 90.464C50.0674 90.4533 50.3901 90.4373 50.6888 90.416C50.9874 90.3893 51.2941 90.3493 51.6087 90.296L51.6648 90.832C51.3447 90.8853 51.0301 90.9253 50.7207 90.952C50.4167 90.9733 50.0861 90.9893 49.7287 91C49.3767 91.0053 48.9687 91.008 48.5047 91.008H47.9767V90.472ZM47.9767 87.832H51.2327V88.368H48.6327V90.8H47.9767V87.832ZM48.4407 89.128H51.0408V89.64H48.4407V89.128ZM51.5367 89.048H53.0567V89.584H51.5367V89.048ZM52.8967 87.384H53.5528V91.288H52.8967V87.384ZM48.8967 91.616H53.5528V93.304H49.5687V94.36H48.9127V92.808H52.8967V92.144H48.8967V91.616ZM48.9127 94.016H53.8247V94.544H48.9127V94.016ZM62.4667 87.384H63.1307V94.624H62.4667V87.384ZM60.3467 88.168H61.0027C61.0027 88.6907 60.9387 89.1947 60.8107 89.68C60.688 90.1653 60.4934 90.6267 60.2267 91.064C59.96 91.496 59.6134 91.8987 59.1867 92.272C58.76 92.6453 58.2427 92.9787 57.6347 93.272L57.2827 92.736C57.9814 92.4 58.5574 92.008 59.0107 91.56C59.464 91.112 59.8 90.6133 60.0187 90.064C60.2374 89.5093 60.3467 88.912 60.3467 88.272V88.168ZM57.6187 88.168H60.6267V88.704H57.6187V88.168ZM64.5461 91.368H71.1061V91.912H64.5461V91.368ZM65.3781 87.568H70.2661V89.328H66.0501V90.296H65.3941V88.832H69.6101V88.096H65.3781V87.568ZM65.3941 90.08H70.4181V90.608H65.3941V90.08ZM67.4981 90.352H68.1541V91.632H67.4981V90.352ZM65.2821 92.464H70.3061V94.552H69.6421V93H65.2821V92.464Z" fill="#525252"/>
<rect x="36" y="12" width="32" height="4" rx="2" fill="#525252"/>
<defs>
<filter id="filter0_dd_228_4572" x="0" y="0" width="104" height="152" filterUnits="userSpaceOnUse" color-interpolation-filters="sRGB">
<feFlood flood-opacity="0" result="BackgroundImageFix"/>
<feColorMatrix in="SourceAlpha" type="matrix" values="0 0 0 0 0 0 0 0 0 0 0 0 0 0 0 0 0 0 127 0" result="hardAlpha"/>
<feMorphology radius="4" operator="erode" in="SourceAlpha" result="effect1_dropShadow_228_4572"/>
<feOffset dy="4"/>
<feGaussianBlur stdDeviation="3"/>
<feComposite in2="hardAlpha" operator="out"/>
<feColorMatrix type="matrix" values="0 0 0 0 0 0 0 0 0 0 0 0 0 0 0 0 0 0 0.1 0"/>
<feBlend mode="normal" in2="BackgroundImageFix" result="effect1_dropShadow_228_4572"/>
<feColorMatrix in="SourceAlpha" type="matrix" values="0 0 0 0 0 0 0 0 0 0 0 0 0 0 0 0 0 0 127 0" result="hardAlpha"/>
<feMorphology radius="3" operator="erode" in="SourceAlpha" result="effect2_dropShadow_228_4572"/>
<feOffset dy="10"/>
<feGaussianBlur stdDeviation="7.5"/>
<feComposite in2="hardAlpha" operator="out"/>
<feColorMatrix type="matrix" values="0 0 0 0 0 0 0 0 0 0 0 0 0 0 0 0 0 0 0.1 0"/>
<feBlend mode="normal" in2="effect1_dropShadow_228_4572" result="effect2_dropShadow_228_4572"/>
<feBlend mode="normal" in="SourceGraphic" in2="effect2_dropShadow_228_4572" result="shape"/>
</filter>
</defs>
</svg>
