<svg width="44" height="46" viewBox="0 0 44 46" fill="none" xmlns="http://www.w3.org/2000/svg">
<path d="M41.3086 10.3691C37.372 26.7801 36.7501 42.0691 36.7471 42.1436C35.066 43.7425 26.19 44.0742 21.9619 44.04C17.7339 44.0742 8.85784 43.7425 7.17675 42.1436C7.17375 42.0691 6.55183 26.7802 2.61523 10.3691C2.63145 10.3801 6.9485 13.29 21.9619 13.29C36.9761 13.29 41.2928 10.3798 41.3086 10.3691Z" fill="#FF6262"/>
<path d="M21.9873 1.40137C28.6583 1.4697 42 2.47793 42 5.9629L41.5898 8.47364C41.578 8.49144 39.4921 11.5955 22.0137 11.5986L22.0137 11.5996C22.0091 11.5996 22.0046 11.5986 22 11.5986C21.9958 11.5986 21.9915 11.5996 21.9873 11.5996L21.9873 11.5986C4.45875 11.5955 2.41113 8.47363 2.41113 8.47363L2.00098 5.96289C2.00098 2.48253 15.3076 1.4721 21.9873 1.40137Z" fill="#FF6262"/>
</svg>
